<?xml version="1.0" encoding="UTF-8"?>
<svg xmlns="http://www.w3.org/2000/svg" version="1.1" xmlns:xlink="http://www.w3.org/1999/xlink" viewBox="0 0 169.8 169.8">
  <defs>
    <style>
      .cls-1 {
        fill: none;
      }

      .cls-2 {
        clip-path: url(#clippath);
      }
    </style>
    <clipPath id="clippath">
      <path class="cls-1" d="M114.6,11.9l-12.3-7.1c-11.1-6.4-23.8-6.4-34.8,0l-21.6,12.5-21.6,12.5c-11.1,6.4-17.5,17.3-17.5,30.1v49.9c0,12.8,6.3,23.8,17.4,30.2l21.6,12.5,21.7,12.5c11.1,6.4,23.8,6.4,34.8,0l21.6-12.5,9.3-5.4,12.3-7.1c11.1-6.4,17.4-17.4,17.4-30.2v-49.9c0-12.8-6.3-23.8-17.4-30.2l-21.6-12.5-9.3-5.3ZM84.9,64.3c11.4,0,20.6,9.2,20.6,20.6s-9.2,20.6-20.6,20.6-20.6-9.2-20.6-20.6,9.2-20.6,20.6-20.6ZM36.5,112.8l-29.7-17.1,29.7-.4v-10.8c0-17.4,9.5-32.7,23.4-41.1l25-14.4,29.7-17.1-14.5,25.9,9.8,5.7c14,8.5,23.4,23.9,23.4,41.4v62.2l-15.2-25.6-9.9,5.7c-6.9,3.8-14.9,6-23.3,6s-16.4-2.2-23.3-6l-25.1-14.4Z"/>
    </clipPath>
  </defs>
  <!-- Generator: Adobe Illustrator 28.7.3, SVG Export Plug-In . SVG Version: 1.2.0 Build 164)  -->
  <g>
    <g id="Layer_1">
      <g class="cls-2">
        <rect x="6.8" y="-1.6" width="156.2" height="173"/>
      </g>
    </g>
  </g>
</svg>